<svg width="32" height="32" viewBox="0 0 32 32" fill="none" xmlns="http://www.w3.org/2000/svg">
<path d="M23.7576 8.33941H22.7394C22.5939 6.64244 21.9152 5.13941 20.703 4.07274C19.4424 2.9091 17.7939 2.2788 16.0485 2.2788H15.9515C14.2546 2.2788 12.6061 2.9091 11.297 4.07274C10.0849 5.13941 9.40607 6.69092 9.26061 8.33941H8.24243C8.38789 6.35153 9.21213 4.55759 10.6182 3.29698C12.0727 1.98789 13.9636 1.26062 15.9515 1.26062H16.0485C18.0364 1.26062 19.9273 1.98789 21.3818 3.29698C22.7879 4.55759 23.6121 6.35153 23.7576 8.33941Z" fill="#388FF3"/>
<path d="M18.7152 16.2909H13.2849C12.994 16.2909 12.7516 16.5333 12.7516 16.8242V19.7818C12.7516 20.0727 12.994 20.3151 13.2849 20.3151H18.6667C18.9576 20.3151 19.2001 20.0727 19.2001 19.7818V16.8242C19.2001 16.5333 18.9576 16.2909 18.7152 16.2909ZM18.7152 16.2909H13.2849C12.994 16.2909 12.7516 16.5333 12.7516 16.8242V19.7818C12.7516 20.0727 12.994 20.3151 13.2849 20.3151H18.6667C18.9576 20.3151 19.2001 20.0727 19.2001 19.7818V16.8242C19.2001 16.5333 18.9576 16.2909 18.7152 16.2909ZM18.7152 16.2909H13.2849C12.994 16.2909 12.7516 16.5333 12.7516 16.8242V19.7818C12.7516 20.0727 12.994 20.3151 13.2849 20.3151H18.6667C18.9576 20.3151 19.2001 20.0727 19.2001 19.7818V16.8242C19.2001 16.5333 18.9576 16.2909 18.7152 16.2909ZM18.7152 16.2909H13.2849C12.994 16.2909 12.7516 16.5333 12.7516 16.8242V19.7818C12.7516 20.0727 12.994 20.3151 13.2849 20.3151H18.6667C18.9576 20.3151 19.2001 20.0727 19.2001 19.7818V16.8242C19.2001 16.5333 18.9576 16.2909 18.7152 16.2909ZM31.4183 25.406L29.1395 15.7091C28.9455 16.1454 28.7031 16.5818 28.4122 16.9697C27.394 18.2788 25.8425 19.006 24.194 19.006H21.3334C21.0425 19.006 20.8001 18.7636 20.8001 18.4727C20.8001 18.1818 21.0425 17.9394 21.3334 17.9394H24.194C25.5516 17.9394 26.7637 17.3575 27.5879 16.2909C28.4122 15.2242 28.7031 13.9151 28.4122 12.606L27.9273 10.6182C27.7334 9.89088 27.1031 9.35754 26.3273 9.35754H5.67279C4.89704 9.35754 4.26673 9.89088 4.07279 10.6182L3.63643 12.606C3.34552 13.9151 3.63643 15.2727 4.46067 16.2909C5.28491 17.3575 6.54552 17.9394 7.85461 17.9394H10.7152C11.0061 17.9394 11.2486 18.1818 11.2486 18.4727C11.2486 18.7636 11.0061 19.006 10.7152 19.006H7.85461C6.20613 19.006 4.65461 18.2788 3.63643 16.9697C3.34552 16.5818 3.1031 16.1454 2.90916 15.7091L0.630368 25.406C0.339459 26.7151 0.630368 28.0727 1.45461 29.0909C2.27885 30.1575 3.53946 30.7394 4.84855 30.7394H27.1516C28.5092 30.7394 29.7213 30.1575 30.5455 29.0909C31.4183 28.0242 31.7092 26.7151 31.4183 25.406ZM20.2667 19.7818C20.2667 20.6545 19.5879 21.3333 18.7152 21.3333H13.2849C12.4122 21.3333 11.7334 20.6545 11.7334 19.7818V16.8242C11.7334 15.9515 12.4122 15.2727 13.2849 15.2727H18.6667C19.5395 15.2727 20.2183 15.9515 20.2183 16.8242L20.2667 19.7818ZM18.7152 16.2909H13.2849C12.994 16.2909 12.7516 16.5333 12.7516 16.8242V19.7818C12.7516 20.0727 12.994 20.3151 13.2849 20.3151H18.6667C18.9576 20.3151 19.2001 20.0727 19.2001 19.7818V16.8242C19.2001 16.5333 18.9576 16.2909 18.7152 16.2909ZM18.7152 16.2909H13.2849C12.994 16.2909 12.7516 16.5333 12.7516 16.8242V19.7818C12.7516 20.0727 12.994 20.3151 13.2849 20.3151H18.6667C18.9576 20.3151 19.2001 20.0727 19.2001 19.7818V16.8242C19.2001 16.5333 18.9576 16.2909 18.7152 16.2909ZM18.7152 16.2909H13.2849C12.994 16.2909 12.7516 16.5333 12.7516 16.8242V19.7818C12.7516 20.0727 12.994 20.3151 13.2849 20.3151H18.6667C18.9576 20.3151 19.2001 20.0727 19.2001 19.7818V16.8242C19.2001 16.5333 18.9576 16.2909 18.7152 16.2909Z" fill="#388FF3"/>
</svg>
