<svg width="32" height="32" viewBox="0 0 32 32" fill="none" xmlns="http://www.w3.org/2000/svg">
<g clip-path="url(#clip0_1067_2510)">
<path d="M25.0037 0.96043C25.0037 0.429997 24.5737 0 24.0433 0H7.95677C7.42633 0 6.99634 0.429997 6.99634 0.96043V10.6549H25.0038L25.0037 0.96043ZM11.2156 7.83657C11.2156 8.35431 10.7959 8.77406 10.2781 8.77406C9.76038 8.77406 9.34063 8.35431 9.34063 7.83657V5.44196C9.34063 4.92421 9.76038 4.50447 10.2781 4.50447C10.7959 4.50447 11.2156 4.92421 11.2156 5.44196V7.83657Z" fill="#388FF3"/>
<path d="M6.99634 28.9163C6.99634 29.4467 7.42633 29.8767 7.95677 29.8767H8.63451V31.0625C8.63451 31.5803 9.05426 32 9.57201 32C10.0898 32 10.5095 31.5803 10.5095 31.0625V29.8767H21.3785V31.0625C21.3785 31.5803 21.7982 32 22.316 32C22.8337 32 23.2535 31.5803 23.2535 31.0625V29.8767H24.0433C24.5737 29.8767 25.0037 29.4467 25.0037 28.9163V12.5298H6.99634V28.9163ZM9.34063 15.3801C9.34063 14.8624 9.76038 14.4426 10.2781 14.4426C10.7959 14.4426 11.2156 14.8624 11.2156 15.3801V17.7749C11.2156 18.2926 10.7959 18.7124 10.2781 18.7124C9.76038 18.7124 9.34063 18.2926 9.34063 17.7749V15.3801Z" fill="#388FF3"/>
</g>
<defs>
<clipPath id="clip0_1067_2510">
<rect width="32" height="32" fill="white"/>
</clipPath>
</defs>
</svg>
