<svg width="32" height="32" viewBox="0 0 32 32" fill="none" xmlns="http://www.w3.org/2000/svg">
<g clip-path="url(#clip0_1067_1714)">
<path d="M30.8699 5.10669C29.9878 3.58244 28.72 2.30406 27.204 1.40981C25.6404 0.4875 23.8496 0 22.0251 0C20.2007 0 18.4097 0.4875 16.8462 1.40981C15.33 2.30412 14.0624 3.5825 13.1803 5.10669C13.0002 5.41788 13.0139 5.8045 13.2155 6.10213L17.2475 12.0536C17.2709 12.0519 17.2942 12.05 17.318 12.05H20.2222L19.6294 10.2714C19.4657 9.78025 19.7312 9.24931 20.2224 9.08556C20.7136 8.92194 21.2445 9.18738 21.4082 9.6785L22.0251 11.5292L22.642 9.6785C22.8057 9.18731 23.3365 8.92181 23.8279 9.08556C24.319 9.24931 24.5845 9.78019 24.4208 10.2714L23.828 12.05H26.7322C26.756 12.05 26.7794 12.0518 26.8028 12.0536L30.8347 6.10213C31.0362 5.8045 31.0499 5.41788 30.8699 5.10669Z" fill="#388FF3"/>
<path d="M18.075 30.0584C18.075 31.129 18.946 32 20.0166 32H24.0333C25.104 32 25.975 31.129 25.975 30.0584V13.925H18.075V30.0584Z" fill="#388FF3"/>
<path d="M2.0083 11.9167H10.9125V21.0875H2.0083V11.9167Z" fill="#388FF3"/>
<path d="M1.00415 30.0584C1.00415 31.129 1.87515 32 2.94578 32H9.97503C11.0457 32 11.9167 31.129 11.9167 30.0584V22.9625H1.00415V30.0584Z" fill="#388FF3"/>
<path d="M9.90833 1.94163C9.90833 1.00925 9.24301 0.30619 8.36083 0.30619C8.13776 0.30619 7.91214 0.35119 7.69033 0.440003L4.53414 1.70244C3.66664 2.04944 3.01245 3.01569 3.01245 3.95V10.0417H9.90833V1.94163Z" fill="#388FF3"/>
</g>
<defs>
<clipPath id="clip0_1067_1714">
<rect width="32" height="32" fill="white"/>
</clipPath>
</defs>
</svg>
