<svg width="32" height="32" viewBox="0 0 32 32" fill="none" xmlns="http://www.w3.org/2000/svg">
<path fill-rule="evenodd" clip-rule="evenodd" d="M7.95723 28.9333C9.3079 25.44 12.6999 22.96 16.6666 22.96C20.6332 22.96 24.0252 25.44 25.3759 28.9333C25.4946 29.24 25.4546 29.5866 25.2679 29.8586C25.0812 30.1306 24.7732 30.2933 24.4426 30.2933H8.89056C8.56123 30.2933 8.2519 30.1306 8.06523 29.8586C7.8799 29.5866 7.83856 29.24 7.95723 28.9333Z" fill="#388FF3"/>
<path fill-rule="evenodd" clip-rule="evenodd" d="M16.9758 24.1773C16.8558 24.716 16.3211 25.056 15.7825 24.936C15.2438 24.816 14.9038 24.2813 15.0238 23.7426C15.0238 23.7426 15.9358 19.6333 15.0225 15.3866C14.4358 12.6626 13.0918 9.86529 10.1625 8.15729C9.68646 7.87862 9.52512 7.26662 9.80246 6.78929C10.0811 6.31329 10.6931 6.15195 11.1705 6.42929C14.6411 8.45462 16.2838 11.7373 16.9771 14.9653C17.9838 19.6466 16.9758 24.1773 16.9758 24.1773Z" fill="#388FF3"/>
<path fill-rule="evenodd" clip-rule="evenodd" d="M17.4065 18.824C17.2971 19.3653 16.7691 19.716 16.2291 19.6067C15.6878 19.4973 15.3371 18.9707 15.4465 18.4293C15.4465 18.4293 15.8651 16.1 18.8971 13.2333C19.2985 12.8547 19.9318 12.872 20.3105 13.2733C20.6905 13.6747 20.6718 14.308 20.2718 14.6867C17.8251 17 17.4065 18.824 17.4065 18.824Z" fill="#388FF3"/>
<path fill-rule="evenodd" clip-rule="evenodd" d="M19.0465 15.8013C18.9491 15.5399 18.6131 14.5519 18.5865 13.4066C18.5518 11.9239 19.0185 10.2253 20.8771 9.27326C24.1985 7.57459 28.2891 8.76926 30.0878 10.8413C30.3078 11.0946 30.3865 11.4386 30.2971 11.7613C30.2091 12.0839 29.9665 12.3399 29.6491 12.4466C29.6491 12.4466 28.0118 13.0426 26.8945 15.2773C26.3425 16.3799 24.9331 17.5639 23.4358 17.9733C22.6091 18.1986 21.7651 18.1946 21.0105 17.8906C20.7518 17.7866 20.4998 17.6466 20.2638 17.4666C20.6225 17.0173 21.0638 16.5306 21.6051 16.0199C22.0051 15.6413 22.0238 15.0079 21.6438 14.6066C21.2651 14.2053 20.6318 14.1879 20.2305 14.5666C19.7798 14.9919 19.3878 15.4053 19.0465 15.8013Z" fill="#388FF3"/>
<path fill-rule="evenodd" clip-rule="evenodd" d="M12.3652 13.852C11.8506 14.0826 11.3546 14.1906 10.8852 14.2106C9.44388 14.2706 8.16655 13.472 7.16122 12.3493C6.19988 11.2746 5.48922 9.92664 5.09322 9.07197C4.22388 7.2013 1.92255 4.65197 1.92255 4.65197C1.70788 4.4133 1.62122 4.08664 1.68922 3.7733C1.75722 3.45997 1.97055 3.1973 2.26388 3.06797C6.17188 1.3533 10.9172 0.901303 14.6252 3.87064C16.3492 5.25197 16.5772 7.0093 16.2079 8.63064C15.7186 10.78 14.0839 12.6453 14.0839 12.6453C14.0719 12.6586 14.0586 12.672 14.0466 12.6853C13.1052 10.5093 11.5772 8.49997 9.17055 7.09597C8.69322 6.81864 8.08122 6.97997 7.80255 7.45597C7.52522 7.9333 7.68655 8.5453 8.16255 8.82397C10.2999 10.0706 11.5946 11.8973 12.3652 13.852Z" fill="#388FF3"/>
</svg>
