<svg width="32" height="32" viewBox="0 0 32 32" fill="none" xmlns="http://www.w3.org/2000/svg">
<g clip-path="url(#clip0_1067_1218)">
<path d="M10.5898 2.4054C10.3385 2.50712 10.1112 2.65074 9.90771 2.83021C10.0573 4.04487 10.6617 5.16379 11.5891 5.90576C11.6489 5.95363 11.7327 5.98355 11.8105 5.98355C12.008 5.98355 12.1695 5.82198 12.1635 5.61858C12.1635 5.51086 12.1156 5.41512 12.0378 5.34929C11.1762 4.65519 10.6437 3.5662 10.5898 2.4054Z" fill="#388FF3"/>
<path d="M13.8447 8.60437H18.3204V9.44209H13.8447V8.60437Z" fill="#388FF3"/>
<path d="M13.2344 0.382935H14.4371V1.14884H13.2344V0.382935Z" fill="#388FF3"/>
<path d="M3.88807 3.72776H8.48341C8.90823 2.40538 10.1289 1.51386 11.5171 1.50788H12.5163V0.0239363V0H5.6592C4.29494 0 3.18799 1.10695 3.18799 2.47121V3.72776H3.88807Z" fill="#388FF3"/>
<path d="M18.8171 7.88627V4.96631H13.3601V7.88627H13.4858H18.6795H18.8171Z" fill="#388FF3"/>
<path d="M27.5351 19.8414C27.3796 19.6918 26.6795 19.4047 25.4529 19.4047C24.2263 19.4047 23.5262 19.6919 23.3706 19.8414C23.5262 19.991 24.2263 20.2782 25.4529 20.2782C26.6795 20.2782 27.3796 19.991 27.5351 19.8414Z" fill="#388FF3"/>
<path d="M12.5045 27.0935H19.5292V20.015C19.5292 19.9791 19.5292 19.9432 19.5352 19.9073C19.0625 19.2251 18.3325 18.2618 17.2195 16.8916C15.8493 15.2162 14.4671 13.6365 14.0722 13.1877C12.4566 13.2715 11.1821 14.5999 11.1702 16.2214C11.218 16.5804 11.6668 20.2064 11.6668 21.4869C11.6668 22.528 11.224 25.442 11.1702 25.7831C11.1821 26.5131 11.7745 27.0935 12.5045 27.0935Z" fill="#388FF3"/>
<path d="M4.19947 4.4458L3.50537 9.81304H8.23236L7.53826 4.4458H6.95188V8.90955C6.95188 9.10702 6.79031 9.26854 6.59289 9.26854C6.39546 9.26854 6.2339 9.10697 6.2339 8.90955V4.4458H5.39019V8.90955C5.39019 9.10702 5.22862 9.26854 5.0312 9.26854C4.83373 9.26854 4.67221 9.10697 4.67221 8.90955V4.4458H4.19947Z" fill="#388FF3"/>
<path d="M21.6472 18.7943C21.019 19.0456 20.5702 19.3508 20.3668 19.656C20.3548 19.6739 20.3428 19.6919 20.3368 19.7098C20.3308 19.7098 20.3308 19.7098 20.3308 19.7158C20.3249 19.7338 20.3129 19.7457 20.3069 19.7637H20.3009L20.283 19.8175H20.277L20.259 19.8774V19.8893C20.2531 19.9013 20.2531 19.9193 20.2531 19.9312C20.2531 19.9372 20.2471 19.9432 20.2471 19.9492V20.003C20.2531 20.1347 20.2949 20.2544 20.3668 20.362C20.5702 20.6672 21.019 20.9724 21.6472 21.2237C21.8866 21.3134 22.1319 21.3972 22.3772 21.463C22.6046 21.5229 22.838 21.5827 23.0893 21.6246C23.8672 21.7742 24.657 21.846 25.4528 21.84C26.4939 21.84 27.4872 21.7263 28.3368 21.511L30.4132 20.5177C30.461 20.4698 30.5029 20.416 30.5388 20.3621C30.7004 20.1467 30.7004 19.8595 30.5388 19.6441C30.3354 19.339 29.8866 19.0338 29.2583 18.7824C28.2471 18.3816 26.8948 18.1661 25.4528 18.1661C24.7527 18.1661 24.0526 18.22 23.3585 18.3277C23.1012 18.3696 22.8559 18.4235 22.6225 18.4773C22.2875 18.5609 21.9644 18.6627 21.6472 18.7943ZM25.4528 18.6866C26.853 18.6866 28.271 19.0396 28.271 19.8414C28.271 20.6432 26.8529 20.9962 25.4528 20.9962C24.0526 20.9962 22.6346 20.6372 22.6346 19.8414C22.6346 19.0456 24.0526 18.6866 25.4528 18.6866Z" fill="#388FF3"/>
<path d="M25.453 22.5699C24.6631 22.5699 23.8674 22.5041 23.0895 22.3724C22.8382 22.3306 22.5929 22.2767 22.3655 22.2169C21.468 21.9895 20.738 21.6664 20.2473 21.2715V28.8885C20.2473 29.2834 20.72 29.7143 21.5278 30.0553L21.6475 30.1032C21.9347 30.2169 22.2339 30.3126 22.5331 30.3844C23.305 30.5759 24.0948 30.6896 24.8906 30.7135V23.4017C24.8906 23.264 24.9684 23.1384 25.094 23.0786L26.195 22.552C25.9496 22.5639 25.7043 22.5699 25.453 22.5699Z" fill="#388FF3"/>
<path d="M25.6084 23.629V32L26.9368 31.3657L30.6585 29.5826V21.2715C30.1679 21.6664 29.4439 21.9895 28.5583 22.2169L25.6084 23.629Z" fill="#388FF3"/>
<path d="M21.1149 16.6521C21.2106 16.6342 21.2824 16.5504 21.2884 16.4547C21.3303 16.0358 21.3542 15.6229 21.3542 15.2161C21.3542 14.1869 21.1807 13.2235 20.5524 12.5115C19.9241 11.7995 18.9608 11.4525 17.5846 11.4166C17.5247 11.4106 17.4649 11.4345 17.423 11.4764C17.3931 11.5063 17.3691 11.5422 17.3572 11.5841C17.4888 11.8534 18.165 12.8586 19.1522 14.187C20.1395 15.5153 20.8755 16.4308 21.1149 16.6521Z" fill="#388FF3"/>
<path d="M8.29808 28.0269C8.30407 27.985 8.99218 23.5093 8.99218 22.0434C8.99218 20.2363 8.30407 14.7374 8.29808 14.6776C8.2921 14.6656 8.2921 14.6477 8.2921 14.6357C8.2921 13.8518 8.47162 13.08 8.81266 12.3799L8.35792 10.531H3.39157L2.80518 13.5647L1.35116 27.8354C1.29132 28.3859 1.47084 28.9364 1.8418 29.3433C2.21276 29.7561 2.73936 29.9895 3.28984 29.9895H9.06394C8.56731 29.4809 8.29204 28.7928 8.29204 28.0807C8.2921 28.0628 8.2921 28.0448 8.29808 28.0269Z" fill="#388FF3"/>
<path d="M19.5293 28.8885V27.8115H12.5046C11.3737 27.8055 10.4582 26.8901 10.4523 25.7591C10.4523 25.7412 10.4523 25.7232 10.4582 25.7053C10.4642 25.6754 10.9489 22.516 10.9489 21.4869C10.9489 20.2124 10.4582 16.3291 10.4582 16.2872C10.4523 16.2752 10.4523 16.2573 10.4523 16.2453C10.4582 14.163 12.1456 12.4757 14.2279 12.4697C14.3296 12.4697 14.4313 12.5116 14.4972 12.5894C14.5151 12.6073 16.1546 14.4562 17.7762 16.4368C18.7096 17.5796 19.3797 18.4533 19.8645 19.1294C20.3611 18.5131 21.3723 18.0165 22.7006 17.7292C22.8622 16.1915 23.0357 14.8272 23.0596 14.6118C23.0417 12.1526 21.0551 10.172 18.5959 10.16H13.48C11.8525 10.16 10.3566 11.0456 9.5727 12.4697C9.36326 12.8466 9.20773 13.2535 9.11797 13.6724C9.04616 13.9835 9.01025 14.2947 9.01025 14.6118C9.07009 15.0545 9.71034 20.2303 9.71034 22.0433C9.71034 23.5153 9.07608 27.6858 9.01025 28.1107C9.02222 28.7988 9.38121 29.439 9.96161 29.804C10.2249 29.9715 10.5181 30.0733 10.8233 30.1091L11.0507 30.1211H20.2175C19.7746 29.7561 19.5293 29.3373 19.5293 28.8885ZM16.6333 11.6081C16.6393 11.3567 16.747 11.1174 16.9324 10.9499C17.1119 10.7763 17.3513 10.6866 17.6026 10.6985C19.1882 10.7404 20.3311 11.1832 21.085 12.0389C22.1441 13.2296 22.156 14.899 22.0064 16.5206C21.9586 17.0052 21.5517 17.3762 21.067 17.3762H20.9773C20.8037 17.3583 20.5884 17.3403 18.5899 14.6478C18.0872 13.9716 17.6205 13.3194 17.2735 12.8048C16.6273 11.8414 16.6273 11.7337 16.6333 11.6081Z" fill="#388FF3"/>
</g>
<defs>
<clipPath id="clip0_1067_1218">
<rect width="32" height="32" fill="white"/>
</clipPath>
</defs>
</svg>
