<svg width="32" height="32" viewBox="0 0 32 32" fill="none" xmlns="http://www.w3.org/2000/svg">
<path d="M28.5314 17.1422H28.1127C26.2505 17.1422 24.4329 16.5397 22.9409 15.4374L20.6119 17.7665L19.2854 16.44L21.4824 14.2429L20.3859 13.3304L17.963 15.7533L16.6365 14.4268L18.938 12.1253L17.8414 11.2127L15.3141 13.7401L13.9876 12.4136L16.3936 10.0076L14.263 8.23431C13.9947 8.011 13.6548 7.88806 13.3057 7.88806C12.4806 7.88806 11.8093 8.55931 11.8093 9.38444V10.1991C11.8093 12.8851 9.62406 15.0704 6.93806 15.0704C5.05275 15.0704 3.31975 13.9662 2.52306 12.2575L2.29375 11.7657C2.09694 11.3436 1.66887 11.0708 1.20312 11.0708C0.53975 11.0708 0 11.6106 0 12.2741V20.2947H32C31.8321 18.5286 30.3408 17.1422 28.5314 17.1422Z" fill="#388FF3"/>
<path d="M0.361572 22.1707C0.931885 23.3198 2.11726 24.112 3.48476 24.112H28.5313C29.8988 24.112 31.0842 23.3199 31.6544 22.1707H0.361572Z" fill="#388FF3"/>
</svg>
