<svg width="27" height="26" viewBox="0 0 27 26" fill="none" xmlns="http://www.w3.org/2000/svg">
<path d="M5.22002 24.7799L17.12 13.5799L22.72 19.1799M5.22002 24.7799H19.22C21.5396 24.7799 23.42 22.8995 23.42 20.5799V13.5799M5.22002 24.7799C2.90042 24.7799 1.02002 22.8995 1.02002 20.5799V6.57989C1.02002 4.26029 2.90042 2.37989 5.22002 2.37989H14.32M22.02 9.13969L22.02 5.17989M22.02 5.17989L22.02 1.22009M22.02 5.17989L18.0602 5.17989M22.02 5.17989L25.9798 5.17989M9.42002 8.67989C9.42002 9.83969 8.47982 10.7799 7.32002 10.7799C6.16022 10.7799 5.22002 9.83969 5.22002 8.67989C5.22002 7.52009 6.16022 6.57989 7.32002 6.57989C8.47982 6.57989 9.42002 7.52009 9.42002 8.67989Z" stroke="#388FF3" stroke-width="2" stroke-linecap="round" stroke-linejoin="round"/>
</svg>
