<svg width="32" height="32" viewBox="0 0 32 32" fill="none" xmlns="http://www.w3.org/2000/svg">
<path d="M16.5713 12.8572C16.5713 13.6462 17.2109 14.2857 17.9999 14.2857C18.7888 14.2857 19.4284 13.6462 19.4284 12.8572C19.4284 12.0682 18.7889 11.4286 17.9999 11.4286C17.2112 11.4294 16.5722 12.0685 16.5713 12.8572Z" fill="#388FF3"/>
<path d="M19.9998 10.8571C20.0005 11.488 20.5118 11.9992 21.1426 12C21.7738 12 22.2855 11.4883 22.2855 10.8571C22.2855 10.2259 21.7738 9.71423 21.1426 9.71423C20.5114 9.71423 19.9998 10.2259 19.9998 10.8571Z" fill="#388FF3"/>
<path d="M7.99705 6.88631C8.09242 6.86949 8.18892 6.85974 8.28567 6.85712C9.31023 6.86043 10.1659 7.63906 10.2656 8.65874C10.458 8.60349 10.657 8.57412 10.8571 8.57137C11.963 8.57368 12.9085 9.36743 13.1023 10.4562C13.3888 10.3456 13.6929 10.2879 14 10.2856C14.7805 10.2884 15.5171 10.6475 16 11.2607C16.6811 10.3805 17.8602 10.0531 18.8977 10.4562C19.0915 9.36743 20.037 8.57368 21.1429 8.57137C21.343 8.57412 21.5419 8.60349 21.7344 8.65874C21.834 7.63899 22.6897 6.86043 23.7143 6.85712C23.8111 6.85974 23.9075 6.86949 24.0029 6.88631C24.0028 6.87637 24 6.86712 24 6.85712C24.0019 6.57356 24.0751 6.29499 24.2128 6.04712C23.5052 5.29449 22.8754 4.47256 22.3325 3.59374L22.3091 3.55887V3.55918C22.0014 3.06474 21.7646 2.62312 21.5868 2.26324C21.2698 2.47849 20.9255 2.65056 20.563 2.77499C20.5239 2.79418 20.4825 2.80862 20.4399 2.81806C19.0001 3.24856 17.5025 3.45449 15.9999 3.42862C14.4975 3.45449 13 3.24862 11.5603 2.81824C11.517 2.80874 11.475 2.79406 11.4352 2.77449C11.0734 2.65018 10.7296 2.47831 10.413 2.26331C10.2353 2.62318 9.99842 3.06481 9.69073 3.55924V3.55899L9.6673 3.59387C9.12455 4.47274 8.49461 5.29468 7.78711 6.04724C7.92473 6.29518 7.99786 6.57368 7.99986 6.85724C7.99998 6.86712 7.99717 6.87637 7.99705 6.88631Z" fill="#388FF3"/>
<path d="M25.714 7.42858C26.0296 7.42858 26.2855 7.17277 26.2855 6.85714C26.2851 6.54171 26.0295 6.28602 25.714 6.28571C25.3985 6.28571 25.1426 6.54152 25.1426 6.85714C25.1426 7.17277 25.3985 7.42858 25.714 7.42858Z" fill="#388FF3"/>
<path d="M22.8569 8.85713C22.8574 9.33031 23.2409 9.71375 23.7141 9.71425C24.1874 9.71425 24.5712 9.3305 24.5712 8.85713C24.5712 8.38375 24.1874 8 23.7141 8C23.2407 8 22.8569 8.38375 22.8569 8.85713Z" fill="#388FF3"/>
<path d="M16 2.28569C19.3125 2.28569 21.0256 1.46619 21.1411 1.14281C21.0256 0.8195 19.3125 0 16 0C12.6573 0 10.9436 0.834312 10.856 1.1515C10.9436 1.45144 12.6573 2.28569 16 2.28569Z" fill="#388FF3"/>
<path d="M9.71411 10.8571C9.71411 11.4883 10.2258 12 10.857 12C11.4882 12 11.9999 11.4883 11.9999 10.8571C11.9999 10.2259 11.4882 9.71423 10.857 9.71423C10.2261 9.71498 9.71486 10.2262 9.71411 10.8571Z" fill="#388FF3"/>
<path d="M14.4691 26.9468C15.461 27.2909 16.5399 27.2907 17.5316 26.9462C27.8966 23.3078 29.4663 11.9437 29.6823 9.56146C28.6579 9.23571 27.6819 8.77415 26.7802 8.18903C26.4791 8.43484 26.1028 8.56984 25.7141 8.57146C25.7041 8.57146 25.6949 8.56865 25.685 8.56853C25.7017 8.6639 25.7115 8.7604 25.7141 8.85721C25.7128 9.96121 24.8181 10.8559 23.7141 10.8572C23.6173 10.8546 23.5209 10.8448 23.4255 10.828C23.4256 10.838 23.4284 10.8472 23.4284 10.8572C23.4271 12.119 22.4046 13.1416 21.1427 13.1429C20.9426 13.1402 20.7437 13.1108 20.5512 13.0555C20.4776 14.1079 19.7637 15.0064 18.7552 15.3162C17.7468 15.6259 16.6517 15.283 15.9999 14.4535C15.3482 15.283 14.2531 15.6259 13.2446 15.3162C12.2361 15.0064 11.5223 14.1079 11.4486 13.0555C11.2562 13.1108 11.0572 13.1402 10.8571 13.1429C9.5953 13.1416 8.57274 12.119 8.57143 10.8572C8.57143 10.8472 8.57424 10.838 8.57437 10.828C8.47899 10.8448 8.38249 10.8546 8.28574 10.8572C7.18174 10.8559 6.28705 9.96121 6.28574 8.85721C6.28837 8.7604 6.29812 8.6639 6.31487 8.56853C6.30499 8.56871 6.29574 8.57146 6.28574 8.57146C5.89712 8.56978 5.5208 8.43478 5.21974 8.18903C4.31818 8.77409 3.3423 9.23565 2.31812 9.5614C2.53668 11.9445 4.11812 23.3131 14.4691 26.9468Z" fill="#388FF3"/>
<path d="M20.356 30.7025C20.44 31.0059 20.2629 31.3202 19.9598 31.4054C19.6567 31.4905 19.3418 31.3145 19.2555 31.0117C18.9264 29.8351 18.9662 28.5859 19.3695 27.4327C18.8997 27.6443 18.418 27.8461 17.909 28.0248C16.6729 28.4539 15.3283 28.4541 14.0921 28.0254C13.5827 27.8466 13.1006 27.6446 12.6305 27.4328C13.0338 28.5861 13.0735 29.8352 12.7445 31.0117C12.6898 31.209 12.5338 31.3619 12.3356 31.4127C12.1373 31.4636 11.927 31.4045 11.7842 31.2579C11.6414 31.1112 11.588 30.8994 11.644 30.7026C11.7164 30.4438 11.7668 30.1794 11.7944 29.9121C9.06541 30.1764 7.88078 30.6233 7.51953 30.86C8.16403 31.2989 11.0256 32 16 32C20.9743 32 23.8359 31.2989 24.4805 30.8599C24.1192 30.6232 22.9343 30.1761 20.2045 29.9119C20.2327 30.1792 20.2834 30.4437 20.356 30.7025Z" fill="#388FF3"/>
<path d="M8.28559 9.71431C8.75897 9.71431 9.14272 9.33056 9.14272 8.85719C9.14272 8.38381 8.75897 8.00006 8.28559 8.00006C7.8124 8.00056 7.42897 8.38406 7.42847 8.85719C7.42847 9.3305 7.81222 9.71431 8.28559 9.71431Z" fill="#388FF3"/>
<path d="M12.5713 12.8572C12.5713 13.6462 13.2109 14.2857 13.9999 14.2857C14.7888 14.2857 15.4284 13.6462 15.4284 12.8572C15.4284 12.0682 14.7889 11.4286 13.9999 11.4286C13.2112 11.4294 12.5722 12.0685 12.5713 12.8572Z" fill="#388FF3"/>
<path d="M6.28555 7.42858C6.60111 7.42858 6.85699 7.17277 6.85699 6.85714C6.85699 6.54152 6.60117 6.28571 6.28555 6.28571C5.97011 6.28602 5.71442 6.54171 5.71411 6.85714C5.71411 7.17277 5.96999 7.42858 6.28555 7.42858Z" fill="#388FF3"/>
</svg>
