<svg width="20" height="20" viewBox="0 0 20 20" fill="none" xmlns="http://www.w3.org/2000/svg">
<path d="M12.6471 5.8V3.7C12.6471 3.14304 12.424 2.6089 12.0268 2.21507C11.6297 1.82125 11.091 1.6 10.5294 1.6H3.11765C2.55601 1.6 2.01738 1.82125 1.62024 2.21507C1.22311 2.6089 1 3.14304 1 3.7V16.3C1 16.857 1.22311 17.3911 1.62024 17.7849C2.01738 18.1787 2.55601 18.4 3.11765 18.4H10.5294C11.091 18.4 11.6297 18.1787 12.0268 17.7849C12.424 17.3911 12.6471 16.857 12.6471 16.3V14.2M6.29412 10H19M19 10L15.8235 6.85M19 10L15.8235 13.15" stroke="#E93C47" stroke-width="2" stroke-linecap="round" stroke-linejoin="round"/>
</svg>
