<svg width="69" height="36" viewBox="0 0 69 36" fill="none" xmlns="http://www.w3.org/2000/svg">
<rect width="69" height="36" rx="5" fill="#388FF3"/>
<path fill-rule="evenodd" clip-rule="evenodd" d="M63.5002 4.49969H5.50015C4.94787 4.49969 4.50015 4.9474 4.50015 5.49969V30.4997C4.50015 31.052 4.94787 31.4997 5.50015 31.4997H63.5002C64.0524 31.4997 64.5001 31.052 64.5001 30.4997V5.49969C64.5001 4.9474 64.0524 4.49969 63.5002 4.49969ZM5.50015 1.99969C3.56716 1.99969 2.00015 3.56669 2.00015 5.49969V30.4997C2.00015 32.4327 3.56715 33.9997 5.50015 33.9997H63.5002C65.4331 33.9997 67.0002 32.4327 67.0002 30.4997V5.49969C67.0002 3.56669 65.4332 1.99969 63.5002 1.99969H5.50015Z" fill="white"/>
<path d="M20.712 13.818L15.258 24.33H12L16.932 14.88H12V12H20.712V13.818Z" fill="white"/>
<path d="M30.9073 13.818L25.4533 24.33H22.1953L27.1273 14.88H22.1953V12H30.9073V13.818Z" fill="white"/>
<path d="M33.0386 21.99C33.3506 21.714 33.7346 21.576 34.1906 21.576C34.6466 21.576 35.0306 21.714 35.3426 21.99C35.6666 22.266 35.8286 22.608 35.8286 23.016C35.8286 23.424 35.6666 23.766 35.3426 24.042C35.0306 24.318 34.6466 24.456 34.1906 24.456C33.7346 24.456 33.3506 24.318 33.0386 24.042C32.7266 23.766 32.5706 23.424 32.5706 23.016C32.5706 22.608 32.7266 22.266 33.0386 21.99Z" fill="white"/>
<path d="M46.9383 24.33H45.1023L44.8863 23.25C44.2743 24.054 43.3323 24.456 42.0603 24.456C40.7763 24.456 39.7983 24.054 39.1263 23.25C38.4543 22.446 38.1183 21.372 38.1183 20.028V15.33H40.9263V19.866C40.9263 21.114 41.4543 21.738 42.5103 21.738C43.5903 21.738 44.1303 21.096 44.1303 19.812V15.33H46.9383V24.33Z" fill="white"/>
<path d="M56.7947 24.33H49.2347L49.2527 22.152L52.6727 18.048H49.4867V15.33H56.6327L56.6147 17.508L53.1947 21.612H56.7947V24.33Z" fill="white"/>
</svg>
