<svg width="32" height="32" viewBox="0 0 32 32" fill="none" xmlns="http://www.w3.org/2000/svg">
<path d="M30.4757 14.0116C30.2885 13.6997 28.4415 12.9019 28.4415 12.9019C28.7628 12.736 28.9823 12.7017 28.9823 12.0155C28.9823 11.267 28.9786 11.0175 28.4796 11.0175H26.7866C26.7798 11.0025 26.7723 10.9869 26.7654 10.9713C25.6726 8.58473 25.526 7.98153 23.896 7.16937C21.7097 6.08211 17.6108 6.02722 16.0039 6.02722C14.3971 6.02722 10.2982 6.08211 8.11372 7.16937C6.48191 7.98028 6.52246 8.39759 5.24435 10.9713C5.24435 10.9782 5.23125 10.9963 5.2194 11.0175H3.52459C3.0293 11.0175 3.02556 11.267 3.02556 12.0155C3.02556 12.7017 3.24513 12.736 3.56638 12.9019C3.56638 12.9019 1.78174 13.7621 1.53223 14.0116C1.28272 14.2611 1.0332 16.0077 1.0332 19.0019C1.0332 21.996 1.28272 24.9902 1.28272 24.9902H2.02751C2.02751 25.8635 2.15601 25.9882 2.53028 25.9882H7.52051C7.89478 25.9882 8.01953 25.8635 8.01953 24.9902H23.9883C23.9883 25.8635 24.1131 25.9882 24.4874 25.9882H29.6024C29.8519 25.9882 29.9766 25.8011 29.9766 24.9902H30.7252C30.7252 24.9902 30.9747 21.9337 30.9747 19.0019C30.9747 16.0701 30.6628 14.3235 30.4757 14.0116ZM7.84862 16.8149C6.71259 16.9391 5.57067 17.0028 4.42782 17.0058C3.15406 17.0058 3.1104 17.0875 3.02057 16.2922C2.98678 15.9281 2.99747 15.5613 3.05238 15.1999L3.09168 15.0097H3.27882C4.02736 15.0097 4.73036 15.0415 6.05776 15.4326C6.73292 15.6352 7.36793 15.953 7.9347 16.372C8.20667 16.5691 8.26905 16.7563 8.26905 16.7563L7.84862 16.8149ZM23.266 21.3061L22.9903 21.996H9.01758C9.01758 21.996 9.04191 21.958 8.70569 21.2986C8.45618 20.8108 8.76807 20.499 9.26148 20.3218C10.2171 19.9775 13.0098 19.0019 16.0039 19.0019C18.9981 19.0019 21.8463 19.8427 22.772 20.3218C23.115 20.499 23.5411 20.6237 23.266 21.3099V21.3061ZM7.23482 12.7896C7.03333 12.8012 6.83142 12.8027 6.62975 12.794C6.79255 12.5046 6.883 12.1821 7.04207 11.8452C7.54109 10.7848 8.11185 9.58465 9.12799 9.07876C10.5964 8.34769 13.6398 8.01833 16.0039 8.01833C18.3681 8.01833 21.4115 8.34519 22.8799 9.07876C23.896 9.58465 24.4643 10.7854 24.9658 11.8452C25.1261 12.1852 25.2153 12.5102 25.3825 12.8015C25.2577 12.8084 25.1143 12.8015 24.7718 12.7896H7.23482ZM28.925 16.2897C28.7915 17.0682 28.9162 17.0058 27.5801 17.0058C26.4372 17.0028 25.2954 16.9391 24.1593 16.8149C23.9815 16.7831 23.931 16.483 24.0732 16.372C24.6371 15.9483 25.273 15.6301 25.9501 15.4326C27.2775 15.0415 28.0248 14.9891 28.7628 15.0153C28.8124 15.0172 28.8595 15.0374 28.8951 15.0719C28.9306 15.1064 28.9522 15.153 28.9555 15.2024C28.9908 15.5655 28.9805 15.9316 28.925 16.2922V16.2897Z" fill="#388FF3"/>
</svg>
