<svg width="20" height="21" viewBox="0 0 20 21" fill="none" xmlns="http://www.w3.org/2000/svg">
<path d="M17.2197 16.1423C17.2197 16.1423 16.2541 17.0906 16.0175 17.3686C15.6321 17.78 15.1779 17.9742 14.5825 17.9742C14.5253 17.9742 14.4642 17.9742 14.407 17.9704C13.2735 17.898 12.2202 17.4562 11.4302 17.0792C9.27009 16.0356 7.37333 14.5541 5.79715 12.6764C4.49576 11.1111 3.62561 9.66381 3.04933 8.10989C2.69441 7.16155 2.56465 6.42268 2.6219 5.7257C2.66006 5.28009 2.8318 4.91066 3.14856 4.59454L4.44996 3.2958C4.63696 3.12061 4.83542 3.02539 5.03005 3.02539C5.27049 3.02539 5.46513 3.17012 5.58725 3.29199C5.59107 3.2958 5.59488 3.29961 5.5987 3.30342C5.8315 3.52051 6.05285 3.74522 6.28565 3.98516C6.40396 4.10704 6.52609 4.22891 6.64821 4.3546L7.6901 5.39435C8.09464 5.79806 8.09464 6.17131 7.6901 6.57502C7.57942 6.68547 7.47256 6.79592 7.36188 6.90256C7.0413 7.2301 7.29314 6.97878 6.96111 7.27586C6.95348 7.28347 6.94584 7.28728 6.94203 7.2949C6.61382 7.62244 6.67488 7.94236 6.74357 8.15946C6.74739 8.17088 6.75121 8.18231 6.75502 8.19373C7.02599 8.84881 7.40763 9.46581 7.98772 10.2009L7.99154 10.2047C9.04487 11.4996 10.1554 12.5089 11.3805 13.282C11.537 13.3811 11.6973 13.461 11.8499 13.5372C11.9873 13.6058 12.1171 13.6705 12.2278 13.7391C12.243 13.7467 12.2583 13.7581 12.2736 13.7657C12.4033 13.8305 12.5254 13.861 12.6514 13.861C12.9681 13.861 13.1666 13.6629 13.2315 13.5982L13.9795 12.8516C14.1093 12.7221 14.3154 12.566 14.5558 12.566C14.7924 12.566 14.9871 12.7145 15.1054 12.844C15.1092 12.8478 15.1092 12.8478 15.113 12.8516L17.2159 14.9502C17.609 15.3386 17.2197 16.1423 17.2197 16.1423Z" stroke="white" stroke-width="1.5" stroke-linecap="round" stroke-linejoin="round"/>
</svg>
