<svg width="32" height="32" viewBox="0 0 32 32" fill="none" xmlns="http://www.w3.org/2000/svg">
<g clip-path="url(#clip0_1067_1955)">
<path fill-rule="evenodd" clip-rule="evenodd" d="M28.5577 23.4787H6.93639C6.81583 23.4787 6.70276 23.4206 6.63226 23.3231L1.94118 16.8193C1.05505 15.5908 1.96406 13.8873 3.43894 13.8873C4.03482 13.8873 4.59694 14.1738 4.94307 14.6536L8.63833 19.7765H28.5575C29.578 19.7765 30.4081 20.6068 30.4081 21.6274C30.4081 22.6479 29.5784 23.4789 28.5578 23.4789L28.5577 23.4787Z" fill="#388FF3"/>
<path fill-rule="evenodd" clip-rule="evenodd" d="M27.1801 25.52H8.48609C8.27908 25.52 8.11108 25.3518 8.11108 25.145V23.1033C8.11108 22.8963 8.27908 22.7283 8.48609 22.7283H27.1801C27.3871 22.7283 27.5551 22.8965 27.5551 23.1033V25.145C27.5551 25.3518 27.3871 25.52 27.1801 25.52Z" fill="#388FF3"/>
<path fill-rule="evenodd" clip-rule="evenodd" d="M9.74726 32C8.84388 32 8.35394 31.105 8.75538 29.7247L10.1181 25.0401C10.2535 24.5746 10.9508 24.7686 10.8447 25.2246H12.1308L12.1844 25.0403C12.3222 24.5661 13.0426 24.776 12.9046 25.25L12.572 26.3931H23.0939C22.8815 25.6626 22.5082 24.9333 23.0165 24.7851C23.3759 24.6803 23.4731 25.0118 23.5314 25.2123H24.8178C24.7276 24.7651 25.4129 24.5787 25.547 25.0401L26.9098 29.7247C27.7256 32.5293 24.9024 32.6124 24.3348 30.6607L23.7764 28.7422H11.8883L11.3303 30.6607C11.1138 31.4043 10.4663 32.0002 9.74708 32.0002L9.74726 32Z" fill="#388FF3"/>
<path fill-rule="evenodd" clip-rule="evenodd" d="M8.38697 12.8707C7.96622 12.8707 7.96829 12.3187 7.85953 11.7767C7.57978 10.3828 7.6051 9.02867 7.88185 7.76492C10.1769 7.10585 11.7286 7.32485 12.5579 7.35035C12.6087 9.22105 12.8936 10.4706 13.2509 12.2786C12.5161 12.1582 11.0791 11.8438 8.61029 12.813L8.38697 12.8707ZM8.10479 6.93016C9.04604 3.95809 11.4082 1.58977 14.4299 0.559264C13.2826 1.62839 12.6097 3.83321 12.5549 6.50435C11.1843 6.2966 9.32092 6.62435 8.10479 6.93035V6.93016ZM17.0806 0.0265743C20.3433 -0.200864 23.3585 1.07733 25.3524 3.41265C24.0573 3.60053 22.2047 4.01453 21.0615 4.70566C20.282 2.9169 18.7044 0.630889 17.0808 0.0263868L17.0806 0.0265743ZM25.8857 4.09778C26.6552 5.18434 27.2105 6.44697 27.4894 7.83579C27.6165 8.46842 27.8852 9.06674 27.1965 9.08136C24.4185 9.1408 23.2672 10.0564 22.6535 10.4269C22.3014 8.67186 21.9423 7.01266 21.3748 5.48491C22.1321 5.15359 23.5608 4.35915 25.8857 4.09797V4.09778ZM21.909 10.5285C19.1608 10.1449 16.3663 10.7098 13.9882 12.1414C13.6237 10.2971 13.3392 9.06505 13.3126 7.14298C13.9081 6.69598 16.5123 4.97734 20.6154 5.59103C21.2004 7.11223 21.5572 8.77555 21.909 10.5285ZM13.3242 6.2201C13.4437 3.2469 14.3527 0.932578 15.7979 0.642702C17.5983 0.2812 19.4608 3.00652 20.2788 4.79003C16.7891 4.38765 14.3979 5.53703 13.3242 6.2201Z" fill="#388FF3"/>
<path fill-rule="evenodd" clip-rule="evenodd" d="M20.7723 20.527C20.278 20.527 19.501 20.527 18.7325 20.527C18.5575 20.527 18.4011 20.4038 18.3653 20.2256L16.4367 10.6185C16.3791 10.3316 19.0998 9.91197 19.133 10.0777L21.1405 20.0781C21.187 20.3096 21.0081 20.527 20.7723 20.527Z" fill="#388FF3"/>
</g>
<defs>
<clipPath id="clip0_1067_1955">
<rect width="32" height="32" fill="white"/>
</clipPath>
</defs>
</svg>
