<svg width="121" height="108" viewBox="0 0 121 108" fill="none" xmlns="http://www.w3.org/2000/svg">
<path d="M96.0437 106.667C97.9976 106.671 99.8811 105.933 101.317 104.6C107.305 99.0216 112.096 92.2701 115.395 84.7602C118.693 77.2504 120.43 69.141 120.497 60.9309C120.804 27.5475 93.8295 0.0789567 60.6448 0.000171826C27.4412 -0.0786577 0.500039 26.9763 0.500039 60.3617C0.490558 68.671 2.19126 76.8923 5.49507 84.5079C8.79887 92.1236 13.6342 98.9686 19.6966 104.612C21.1292 105.939 23.0072 106.673 24.9547 106.667H96.0437Z" fill="url(#paint0_linear_486_27966)"/>
<path fill-rule="evenodd" clip-rule="evenodd" d="M104.059 19.3898C105.934 19.3898 107.454 20.9095 107.454 22.7842V103.085C107.454 104.96 105.934 106.48 104.059 106.48H32.8989C31.0242 106.48 29.5044 104.96 29.5044 103.085V22.7842C29.5044 20.9095 31.0242 19.3898 32.8989 19.3898H104.059Z" fill="#D5D8DB"/>
<path d="M104.059 19.3898C104.959 19.3898 105.823 19.7474 106.459 20.384C107.096 21.0206 107.454 21.884 107.454 22.7843V30.1295H31.0005V22.7843C31.0005 21.884 31.3581 21.0206 31.9947 20.384C32.6313 19.7474 33.4947 19.3898 34.395 19.3898H104.059Z" fill="#EAEDF0"/>
<path fill-rule="evenodd" clip-rule="evenodd" d="M91.2805 19.3898C93.1552 19.3898 94.6749 20.9095 94.6749 22.7842V103.085C94.6749 104.96 93.1552 106.48 91.2805 106.48H21.6157C19.741 106.48 18.2212 104.96 18.2212 103.085V22.7842C18.2212 20.9095 19.741 19.3898 21.6157 19.3898H91.2805Z" fill="#EAEDF0"/>
<path d="M48.525 58.384C49.2853 58.384 50.0145 58.6861 50.5521 59.2237C51.0897 59.7613 51.3917 60.4905 51.3917 61.2508V107.002H25.1602V61.2508C25.1602 60.4905 25.4622 59.7613 25.9998 59.2237C26.5374 58.6861 27.2666 58.384 28.0269 58.384H48.525Z" fill="white"/>
<path fill-rule="evenodd" clip-rule="evenodd" d="M85.0334 58.384C86.6167 58.384 87.9002 59.6675 87.9002 61.2508V88.7569C87.9002 90.3402 86.6167 91.6236 85.0334 91.6236H59.3653C57.782 91.6236 56.4985 90.3402 56.4985 88.7569V61.2508C56.4985 59.6675 57.782 58.384 59.3653 58.384H85.0334Z" fill="white"/>
<path d="M91.2799 19.3898C92.1802 19.3898 93.0436 19.7474 93.6802 20.384C94.3168 21.0206 94.6744 21.884 94.6744 22.7843V30.1295H18.2212V22.7843C18.2212 21.884 18.5788 21.0206 19.2154 20.384C19.852 19.7474 20.7154 19.3898 21.6157 19.3898L21.6157 19.3898H91.2799Z" fill="#D5D8DB"/>
<path d="M19.4127 29.6935C19.1388 29.6935 18.8681 29.7514 18.6182 29.8635C18.3683 29.9756 18.145 30.1393 17.9629 30.3438L14.2914 34.4672C13.8115 35.0061 13.5464 35.7026 13.5464 36.4242V42.9718C13.5464 43.9787 13.7447 44.9758 14.1301 45.9062C14.5154 46.8365 15.0802 47.6818 15.7923 48.3938C16.5043 49.1058 17.3496 49.6706 18.2799 50.056C19.2102 50.4413 20.2073 50.6397 21.2143 50.6397H21.2143C23.2479 50.6397 25.1983 49.8318 26.6363 48.3938C28.0743 46.9558 28.8821 45.0055 28.8821 42.9718V36.4242C28.8821 35.7026 29.1473 35.0061 29.6271 34.4672L33.8777 29.6935H19.4127Z" fill="#388FF3"/>
<path d="M49.2138 29.6935L44.9633 34.4672C44.4834 35.0061 44.2183 35.7026 44.2183 36.4242V42.9718C44.2183 43.9787 44.4166 44.9758 44.8019 45.9062C45.1873 46.8365 45.7521 47.6818 46.4641 48.3938C47.1762 49.1058 48.0215 49.6706 48.9518 50.056C49.8821 50.4413 50.8792 50.6397 51.8861 50.6397H51.8862C53.9198 50.6397 55.8702 49.8318 57.3082 48.3938C58.7461 46.9558 59.554 45.0055 59.554 42.9718V36.4242C59.554 35.7026 59.8191 35.0061 60.299 34.4672L64.5496 29.6935H49.2138Z" fill="#388FF3"/>
<path d="M79.8852 29.6935L75.6347 34.4672C75.1548 35.0061 74.8896 35.7026 74.8896 36.4242V42.9718C74.8896 45.0054 75.6975 46.9558 77.1355 48.3938C78.5735 49.8318 80.5239 50.6397 82.5575 50.6397H82.5576C84.5912 50.6397 86.5415 49.8318 87.9795 48.3938C89.4175 46.9558 90.2254 45.0055 90.2254 42.9718V36.4242C90.2254 35.7026 90.4905 35.0061 90.9704 34.4672L94.5613 30.4344C94.6183 30.3703 94.6557 30.291 94.6687 30.2062C94.6818 30.1214 94.6701 30.0346 94.6349 29.9563C94.5998 29.878 94.5428 29.8116 94.4708 29.7649C94.3987 29.7183 94.3148 29.6935 94.229 29.6935H79.8852Z" fill="#388FF3"/>
<path d="M13.8394 35.1448H29.1752C29.2936 34.8991 29.4456 34.671 29.6269 34.4672L33.8774 29.6935H19.4124C19.1386 29.6935 18.8678 29.7514 18.6179 29.8635C18.3681 29.9756 18.1447 30.1393 17.9626 30.3438L14.2911 34.4672C14.1099 34.6711 13.9578 34.8991 13.8394 35.1448Z" fill="#16191D" fill-opacity="0.15"/>
<path d="M44.5112 35.1448H59.847C59.9654 34.8991 60.1175 34.6711 60.2987 34.4672L64.5493 29.6935H49.2136L44.963 34.4672C44.7817 34.671 44.6296 34.8991 44.5112 35.1448Z" fill="#16191D" fill-opacity="0.15"/>
<path d="M75.1826 35.1448H90.5184C90.6368 34.8991 90.7889 34.6711 90.9701 34.4672L94.561 30.4344C94.6181 30.3703 94.6554 30.291 94.6685 30.2062C94.6815 30.1214 94.6698 30.0346 94.6347 29.9563C94.5996 29.878 94.5426 29.8116 94.4705 29.7649C94.3985 29.7183 94.3145 29.6935 94.2287 29.6935H79.8849L75.6344 34.4672C75.4531 34.671 75.301 34.8991 75.1826 35.1448Z" fill="#16191D" fill-opacity="0.15"/>
<path d="M33.8779 29.6935L29.6273 34.4672C29.1475 35.0061 28.8823 35.7026 28.8823 36.4242V42.9718C28.8823 43.9787 29.0807 44.9758 29.466 45.9062C29.8514 46.8365 30.4162 47.6818 31.1282 48.3938C31.8402 49.1058 32.6855 49.6706 33.6158 50.056C34.5461 50.4413 35.5432 50.6397 36.5502 50.6397H36.5502C38.5839 50.6397 40.5342 49.8318 41.9722 48.3938C43.4102 46.9558 44.2181 45.0055 44.2181 42.9718V36.4242C44.2181 35.7026 44.4832 35.0061 44.9631 34.4672L49.2136 29.6935H33.8779Z" fill="#D5D8DB"/>
<path d="M64.5498 29.6935L60.2992 34.4672C59.8193 35.0061 59.5542 35.7026 59.5542 36.4242V42.9718C59.5542 43.9787 59.7525 44.9758 60.1379 45.9062C60.5232 46.8365 61.088 47.6818 61.8001 48.3938C62.5121 49.1058 63.3574 49.6706 64.2877 50.056C65.218 50.4413 66.2151 50.6397 67.2221 50.6397H67.2221C69.2557 50.6397 71.2061 49.8318 72.6441 48.3938C74.0821 46.9558 74.8899 45.0055 74.8899 42.9718V36.4242C74.8899 35.7026 75.1551 35.0061 75.6349 34.4672L79.8855 29.6935H64.5498Z" fill="#D5D8DB"/>
<path d="M29.1753 35.1448H44.511C44.6295 34.8991 44.7815 34.671 44.9628 34.4672L49.2134 29.6935H33.8776L29.6271 34.4672C29.4458 34.6711 29.2938 34.8991 29.1753 35.1448Z" fill="#16191D" fill-opacity="0.05"/>
<path d="M59.8472 35.1448H75.1829C75.3013 34.8991 75.4534 34.671 75.6347 34.4672L79.8852 29.6935H64.5494L60.2989 34.4672C60.1177 34.671 59.9656 34.8991 59.8472 35.1448Z" fill="#16191D" fill-opacity="0.05"/>
<path fill-rule="evenodd" clip-rule="evenodd" d="M79.3326 4.19312C80.5513 4.19312 81.5392 5.18104 81.5392 6.39971V24.1067C81.5392 25.3253 80.5513 26.3133 79.3326 26.3133H33.5635C32.3449 26.3133 31.3569 25.3253 31.3569 24.1067V6.39971C31.3569 5.18104 32.3449 4.19312 33.5635 4.19312H79.3326Z" fill="#D5D8DB"/>
<path fill-rule="evenodd" clip-rule="evenodd" d="M77.4151 4.19312C78.6338 4.19312 79.6217 5.18104 79.6217 6.39971V24.1067C79.6217 25.3253 78.6338 26.3133 77.4151 26.3133H31.6461C30.4274 26.3133 29.4395 25.3253 29.4395 24.1067V6.39971C29.4395 5.18104 30.4274 4.19312 31.6461 4.19312H77.4151Z" fill="#EAEDF0"/>
<path fill-rule="evenodd" clip-rule="evenodd" d="M27.9465 74.454C28.4547 74.454 28.8666 74.8659 28.8666 75.3741V88.361C28.8666 88.8692 28.4547 89.2811 27.9465 89.2811C27.4383 89.2811 27.0264 88.8692 27.0264 88.361V75.3741C27.0264 74.8659 27.4383 74.454 27.9465 74.454Z" fill="#EAEDF0"/>
<defs>
<linearGradient id="paint0_linear_486_27966" x1="0.5" y1="0" x2="0.5" y2="106.667" gradientUnits="userSpaceOnUse">
<stop stop-color="#FBFDFE"/>
<stop offset="1" stop-color="#F0F5FA"/>
</linearGradient>
</defs>
</svg>
